# xmcd
#
# Track frame offsets: 
#        150
#        13635
#        25960
#        39615
#        51777
#        65357
#        78015
#        92700
#        103317
#        117200
#        137732
#        151725
#        165165
#        176545
#        189855
#        204285
#        217697
#        228040
#        239345
#        255695
#        271795
#        287530
#        302252
#        316602
#        335510
#
# Disc length: 4614 seconds
#
# Revision: 7
# Processed by: cddbd v1.5.2PL0 Copyright (c) Steve Scherf et al.
# Submitted via: ExactAudioCopyFreeDBPlugin 1.0
#
DISCID=31120419
DTITLE=Jr. Walker and The All Stars - Ultimate Collection
DYEAR=1997
DGENRE=Rhythm and Blues
TTITLE0=Shotgun
TTITLE1=Shake and Fingerpop
TTITLE2=How Sweet it Is (To Be Loved By You)
TTITLE3=Cleo’s Mood
TTITLE4=Shoot Your Shot
TTITLE5=(I'm A) Road Runner
TTITLE6=Pucker Up Buttercup
TTITLE7=Do the Boomerang
TTITLE8=Tune Up
TTITLE9=Money (That's What I Want)
TTITLE10=Come See About Me
TTITLE11=Sweet Soul
TTITLE12=Cleo's Back
TTITLE13=Satan's Blues
TTITLE14=Hip City Part II
TTITLE15=Home Cookin’
TTITLE16=Twist Lackawanna
TTITLE17=What Does it Take (To Win Your Love)
TTITLE18=These Eyes
TTITLE19=Gotta Hold On to This Feeling
TTITLE20=Do You See My Love (For You Growing)
TTITLE21=Take Me Girl I'm Ready
TTITLE22=Way Back Home
TTITLE23=Walk in the Night
TTITLE24=Last Call
EXTD=YEAR: 1997 ID3G: 5
EXTT0=
EXTT1=
EXTT2=
EXTT3=
EXTT4=
EXTT5=
EXTT6=
EXTT7=
EXTT8=
EXTT9=
EXTT10=
EXTT11=
EXTT12=
EXTT13=
EXTT14=
EXTT15=
EXTT16=
EXTT17=
EXTT18=
EXTT19=
EXTT20=
EXTT21=
EXTT22=
EXTT23=
EXTT24=
PLAYORDER=
